# xmcd
# Copyright (C) 1995-1998 Ti Kan
#
# Track frame offsets:
#       150
#       16762
#       34072
#       51892
#
# Disc length: 950 seconds
#
# Revision: 0
# Processed by: cddbd v1.4b42PL1 Copyright (c) Steve Scherf et al.
# Submitted via: CD-Transfer v1.0
#
DISCID=2603b404
DTITLE=Up In Smoke - I Believe
DYEAR=2000
DGENRE=
TTITLE0=I Believe
TTITLE1=Two Steps
TTITLE2=Falling In Love
TTITLE3=Say Goodbye
EXTD=
EXTT0=
EXTT1=
EXTT2=
EXTT3=
PLAYORDER=
